<svg id="visual" viewBox="0 0 900 600" width="900" height="600" xmlns="http://www.w3.org/2000/svg" xmlns:xlink="http://www.w3.org/1999/xlink" version="1.1"><g transform="translate(462.0827798922529 339.4771043630393)"><path d="M82.8 -123.2C121.4 -85.8 176.7 -80.6 190.3 -57.5C203.8 -34.3 175.6 6.8 155.5 44.8C135.3 82.9 123.2 117.9 98.6 140.8C74.1 163.6 37 174.3 -0.2 174.6C-37.4 174.8 -74.8 164.7 -113.8 146.5C-152.8 128.4 -193.4 102.2 -209.4 65.2C-225.4 28.1 -216.8 -19.8 -202 -65.8C-187.2 -111.7 -166.2 -155.8 -131.5 -194.5C-96.8 -233.2 -48.4 -266.6 -13.2 -248.5C22 -230.3 44.1 -160.7 82.8 -123.2" fill="#008BF0"></path></g></svg>