<svg xmlns="http://www.w3.org/2000/svg" fill="white">
    <g 
    transform="translate(0,128) scale(0.1,-0.1)"
    fill="#F13C3C" 
    stroke="none">
      <path d="M428 1146 c-26 -7 -65 -25 -86 -40 -41 -28 -102 -105 -102 -128 0
      -14 98 -88 133 -101 12 -4 23 1 35 15 67 84 97 88 187 28 110 -74 213 -87 312
      -39 43 21 143 122 143 145 0 15 -56 63 -110 93 l-40 22 -42 -45 c-53 -59 -80
      -60 -168 -6 -68 42 -145 70 -189 69 -14 0 -47 -6 -73 -13z" />
  </g>
      <g 
    transform="translate(0,164) scale(0.1,-0.1)"
    fill="#23DB1D" 
    stroke="none">
      <path d="M428 1146 c-26 -7 -65 -25 -86 -40 -41 -28 -102 -105 -102 -128 0
      -14 98 -88 133 -101 12 -4 23 1 35 15 67 84 97 88 187 28 110 -74 213 -87 312
      -39 43 21 143 122 143 145 0 15 -56 63 -110 93 l-40 22 -42 -45 c-53 -59 -80
      -60 -168 -6 -68 42 -145 70 -189 69 -14 0 -47 -6 -73 -13z" />
  </g>
      <g 
    transform="translate(0,200) scale(0.1,-0.1)"
    fill="#1EB6E4" 
    stroke="none">
      <path d="M428 1146 c-26 -7 -65 -25 -86 -40 -41 -28 -102 -105 -102 -128 0
      -14 98 -88 133 -101 12 -4 23 1 35 15 67 84 97 88 187 28 110 -74 213 -87 312
      -39 43 21 143 122 143 145 0 15 -56 63 -110 93 l-40 22 -42 -45 c-53 -59 -80
      -60 -168 -6 -68 42 -145 70 -189 69 -14 0 -47 -6 -73 -13z" />
  </g>
</svg>
